HIERARCHY
ROOT Hips
{
	OFFSET 0.0000 0.0000 0.0000
	CHANNELS 6 Xposition Yposition Zposition Yrotation Xrotation Zrotation
	JOINT Spine
	{
		OFFSET 0.0000 10.0000 0.0000
		CHANNELS 3 Yrotation Xrotation Zrotation
		JOINT Chest
		{
			OFFSET 0.0000 15.0000 0.0000
			CHANNELS 3 Yrotation Xrotation Zrotation
			JOINT Neck
			{
				OFFSET 0.0000 22.0000 0.0000
				CHANNELS 3 Yrotation Xrotation Zrotation
				JOINT Head
				{
					OFFSET 0.0000 10.0000 0.0000
					CHANNELS 3 Yrotation Xrotation Zrotation
					End Site
					{
						OFFSET 0.0000 18.0000 0.0000
					}
				}
			}
			JOINT LeftShoulder
			{
				OFFSET 3.0000 18.0000 0.0000
				CHANNELS 3 Yrotation Xrotation Zrotation
				JOINT LeftArm
				{
					OFFSET 13.0000 0.0000 0.0000
					CHANNELS 3 Yrotation Xrotation Zrotation
					JOINT LeftForeArm
					{
						OFFSET 29.0000 0.0000 0.0000
						CHANNELS 3 Yrotation Xrotation Zrotation
						JOINT LeftHand
						{
							OFFSET 26.0000 0.0000 0.0000
							CHANNELS 3 Yrotation Xrotation Zrotation
							End Site
							{
								OFFSET 17.0000 0.0000 0.0000
							}
						}
					}
				}
			}
			JOINT RightShoulder
			{
				OFFSET -3.0000 18.0000 0.0000
				CHANNELS 3 Yrotation Xrotation Zrotation
				JOINT RightArm
				{
					OFFSET -13.0000 0.0000 0.0000
					CHANNELS 3 Yrotation Xrotation Zrotation
					JOINT RightForeArm
					{
						OFFSET -29.0000 0.0000 0.0000
						CHANNELS 3 Yrotation Xrotation Zrotation
						JOINT RightHand
						{
							OFFSET -26.0000 0.0000 0.0000
							CHANNELS 3 Yrotation Xrotation Zrotation
							End Site
							{
								OFFSET -17.0000 0.0000 0.0000
							}
						}
					}
				}
			}
		}
	}
	JOINT LeftUpLeg
	{
		OFFSET 9.0000 -3.0000 0.0000
		CHANNELS 3 Yrotation Xrotation Zrotation
		JOINT LeftLeg
		{
			OFFSET 0.0000 -42.0000 0.0000
			CHANNELS 3 Yrotation Xrotation Zrotation
			JOINT LeftFoot
			{
				OFFSET 0.0000 -42.0000 0.0000
				CHANNELS 3 Yrotation Xrotation Zrotation
				JOINT LeftToeBase
				{
					OFFSET 0.0000 -7.0000 13.0000
					CHANNELS 3 Yrotation Xrotation Zrotation
					End Site
					{
						OFFSET 0.0000 0.0000 7.0000
					}
				}
			}
		}
	}
	JOINT RightUpLeg
	{
		OFFSET -9.0000 -3.0000 0.0000
		CHANNELS 3 Yrotation Xrotation Zrotation
		JOINT RightLeg
		{
			OFFSET 0.0000 -42.0000 0.0000
			CHANNELS 3 Yrotation Xrotation Zrotation
			JOINT RightFoot
			{
				OFFSET 0.0000 -42.0000 0.0000
				CHANNELS 3 Yrotation Xrotation Zrotation
				JOINT RightToeBase
				{
					OFFSET 0.0000 -7.0000 13.0000
					CHANNELS 3 Yrotation Xrotation Zrotation
					End Site
					{
						OFFSET 0.0000 0.0000 7.0000
					}
				}
			}
		}
	}
}
MOTION
Frames: 12
Frame Time: 0.0333333
-1.9973 89.0000 -0.1047 -3.0000 5.0000 0.0000 1.8000 4.0000 0.0000 3.6000 4.0000 0.0000 0.0000 -5.0000 0.0000 0.0000 -3.0000 0.0000 0.0000 0.0000 0.0000 0.0000 28.0000 -66.0000 -78.0000 0.0000 0.0000 0.0000 0.0000 0.0000 0.0000 0.0000 0.0000 0.0000 -32.0000 66.0000 78.0000 0.0000 0.0000 0.0000 0.0000 0.0000 -2.3041 -48.3362 3.0829 0.0000 75.8092 0.0000 4.1078 -36.2555 -4.2495 0.0000 -0.0000 0.0000 -0.3085 -18.5185 0.9711 0.0000 48.5832 0.0000 2.7300 -16.2291 -2.6238 0.0000 -18.7491 0.0000
-1.9973 88.9143 5.3814 -3.0007 5.0020 0.0000 1.8000 4.0009 0.0000 3.6000 4.0009 0.0000 0.0000 -4.9987 0.0000 0.0000 -3.0056 0.0000 0.0000 0.0000 0.0000 0.0000 28.0000 -65.9963 -77.9927 0.0000 0.0000 0.0000 0.0000 0.0000 0.0000 0.0000 0.0000 0.0000 -32.0000 65.9963 77.9927 0.0000 0.0000 0.0000 0.0000 0.0000 -1.9672 -45.6790 2.7487 0.0000 74.2246 0.0000 4.1152 -37.0482 -4.1891 0.0000 -0.0000 0.0000 -0.2269 -16.2712 0.8099 0.0000 50.2404 0.0000 2.4497 -12.2378 -2.5898 0.0000 -26.6576 0.0000
-1.9973 88.6845 10.4508 -3.0026 5.0080 0.0000 1.8000 4.0036 0.0000 3.6000 4.0036 0.0000 0.0000 -4.9949 0.0000 0.0000 -3.0222 0.0000 0.0000 0.0000 0.0000 0.0000 28.0000 -65.9856 -77.9711 0.0000 0.0000 0.0000 0.0000 0.0000 0.0000 0.0000 0.0000 0.0000 -32.0000 65.9856 77.9711 0.0000 0.0000 0.0000 0.0000 0.0000 -2.0456 -45.4246 2.8705 0.0000 68.4368 0.0000 3.8143 -30.7860 -3.7970 0.0000 -0.0000 0.0000 -0.1503 -13.3677 0.6502 0.0000 50.3009 0.0000 2.2638 -9.2398 -2.5447 0.0000 -32.6344 0.0000
-1.9972 88.3519 15.5201 -3.0057 5.0178 0.0000 1.8000 4.0080 0.0000 3.6000 4.0080 0.0000 0.0000 -4.9888 0.0000 0.0000 -3.0496 0.0000 0.0000 0.0000 0.0000 0.0000 28.0000 -65.9679 -77.9359 0.0000 0.0000 0.0000 0.0000 0.0000 0.0000 0.0000 0.0000 0.0000 -32.0000 65.9679 77.9359 0.0000 0.0000 0.0000 0.0000 0.0000 -2.2039 -45.0373 3.1133 0.0000 58.9927 0.0000 3.4983 -20.7785 -3.3239 0.0000 -0.0000 0.0000 -0.0683 -8.6224 0.4553 0.0000 47.5146 0.0000 2.2635 -8.8499 -2.4635 0.0000 -35.0000 0.0000
-1.7014 87.9575 21.0216 -3.0101 5.0313 0.0000 1.8000 4.0141 0.0000 3.6000 4.0141 0.0000 0.0000 -4.9803 0.0000 0.0000 -3.0872 0.0000 0.0000 0.0000 0.0000 0.0000 28.0000 -65.9437 -77.8873 0.0000 0.0000 0.0000 0.0000 0.0000 0.0000 0.0000 0.0000 0.0000 -32.0000 65.9437 77.8873 0.0000 0.0000 0.0000 0.0000 0.0000 -1.9671 -42.7816 2.8948 0.0000 47.2108 0.0000 3.2854 -10.3306 -2.6509 0.0000 -0.0000 0.0000 0.0011 -2.0341 -0.0314 0.0000 43.5093 0.0000 2.6543 -14.5491 -2.2313 0.0000 -31.9081 0.0000
-0.9616 87.5425 27.3799 -3.0156 5.0483 0.0000 1.8000 4.0217 0.0000 3.6000 4.0217 0.0000 0.0000 -4.9697 0.0000 0.0000 -3.1349 0.0000 0.0000 0.0000 0.0000 0.0000 28.0000 -65.9131 -77.8261 0.0000 0.0000 0.0000 0.0000 0.0000 0.0000 0.0000 0.0000 0.0000 -32.0000 65.9131 77.8261 0.0000 0.0000 0.0000 0.0000 0.0000 -1.3024 -39.3206 2.0549 0.0000 37.9811 0.0000 3.1697 -3.8960 -1.7850 0.0000 -0.0000 0.0000 -0.1064 6.3183 -0.9665 0.0000 38.7455 0.0000 3.3875 -25.3065 -1.8091 0.0000 -24.7833 0.0000
0.0000 87.1481 35.0000 -3.0221 5.0686 0.0000 1.8000 4.0309 0.0000 3.6000 4.0309 0.0000 0.0000 -4.9570 0.0000 0.0000 -3.1923 0.0000 0.0000 0.0000 0.0000 0.0000 28.0000 -65.8764 -77.7527 0.0000 0.0000 0.0000 0.0000 0.0000 0.0000 0.0000 0.0000 0.0000 -32.0000 65.8764 77.7527 0.0000 0.0000 0.0000 0.0000 0.0000 -0.5110 -37.2617 0.8440 0.0000 39.8747 0.0000 3.1088 -7.6319 -1.0833 0.0000 -0.0000 0.0000 -0.0160 0.5140 -1.7807 0.0000 51.6209 0.0000 4.2726 -40.3447 -1.9001 0.0000 -16.8519 0.0000
0.9617 86.8155 43.5660 -2.9117 5.0921 0.0000 1.7292 4.0415 0.0000 3.4583 4.0415 0.0000 0.0000 -4.9424 0.0000 0.0000 -3.2591 0.0000 0.0000 0.0000 0.0000 0.0000 26.8194 -65.8338 -77.6677 0.0000 0.0000 0.0000 0.0000 0.0000 0.0000 0.0000 0.0000 0.0000 -30.8194 65.8338 77.6677 0.0000 0.0000 0.0000 0.0000 0.0000 0.2807 -34.3268 -0.4977 0.0000 46.1678 0.0000 3.0055 -16.9308 -0.4661 0.0000 -0.0000 0.0000 0.9380 -26.2480 -2.1201 0.0000 80.7674 0.0000 4.5988 -48.2473 -2.1143 0.0000 -11.3402 0.0000
1.7020 86.5857 52.4498 -2.5939 5.1187 0.0000 1.5333 4.0536 0.0000 3.0667 4.0536 0.0000 0.0000 -4.9259 0.0000 0.0000 -3.3349 0.0000 0.0000 0.0000 0.0000 0.0000 23.5556 -65.7857 -77.5715 0.0000 0.0000 0.0000 0.0000 0.0000 0.0000 0.0000 0.0000 0.0000 -27.5556 65.7857 77.5715 0.0000 0.0000 0.0000 0.0000 0.0000 0.7175 -28.9250 -1.4831 0.0000 48.3972 0.0000 2.7252 -24.6154 0.1583 0.0000 -0.0000 0.0000 2.4342 -56.0351 -2.9341 0.0000 95.9353 0.0000 3.2905 -35.1389 -0.7051 0.0000 -9.8656 0.0000
1.9986 86.5000 61.5971 -2.1103 5.1481 0.0000 1.2375 4.0669 0.0000 2.4750 4.0669 0.0000 0.0000 -4.9077 0.0000 0.0000 -3.4194 0.0000 0.0000 0.0000 0.0000 0.0000 18.6250 -65.7323 -77.4646 0.0000 0.0000 0.0000 0.0000 0.0000 0.0000 0.0000 0.0000 0.0000 -22.6250 65.7323 77.4646 0.0000 0.0000 0.0000 0.0000 0.0000 0.6835 -21.3094 -1.8803 0.0000 46.6140 0.0000 2.2655 -30.4846 0.5959 0.0000 -0.0000 0.0000 4.3288 -71.5150 -4.5633 0.0000 94.0069 0.0000 2.2780 -21.9153 0.3859 0.0000 -5.7037 0.0000
1.9206 86.6700 70.9763 -1.5027 5.1804 0.0000 0.8667 4.0815 0.0000 1.7333 4.0815 0.0000 0.0000 -4.8879 0.0000 0.0000 -3.5123 0.0000 0.0000 0.0000 0.0000 0.0000 12.4444 -65.6739 -77.3477 0.0000 0.0000 0.0000 0.0000 0.0000 0.0000 0.0000 0.0000 0.0000 -16.4444 65.6739 77.3477 0.0000 0.0000 0.0000 0.0000 0.0000 0.3557 -11.3173 -1.8118 0.0000 39.9249 0.0000 1.6190 -33.5853 0.8686 0.0000 -0.2305 0.0000 4.1966 -69.0055 -4.4938 0.0000 93.8185 0.0000 1.5616 -30.2505 0.8224 0.0000 -0.0000 0.0000
1.7035 87.0873 80.5609 -0.8126 5.2152 0.0000 0.4458 4.0974 0.0000 0.8917 4.0974 0.0000 0.0000 -4.8665 0.0000 0.0000 -3.6133 0.0000 0.0000 0.0000 0.0000 0.0000 5.4306 -65.6106 -77.2212 0.0000 0.0000 0.0000 0.0000 0.0000 0.0000 0.0000 0.0000 0.0000 -9.4306 65.6106 77.2212 0.0000 0.0000 0.0000 0.0000 0.0000 0.2367 -8.5561 -1.5905 0.0000 44.9752 0.0000 1.2346 -22.9009 0.7877 0.0000 -18.7491 0.0000 3.2983 -66.6266 -3.5924 0.0000 83.7679 0.0000 0.6110 -27.9964 1.1922 0.0000 -0.0000 0.0000
